<mxfile host="65bd71144e">
    <diagram id="LjahWVpIOMi3En7ilmGU" name="Page-1">
        <mxGraphModel dx="3251" dy="1611" grid="1" gridSize="10" guides="1" tooltips="1" connect="1" arrows="1" fold="1" page="1" pageScale="1" pageWidth="1700" pageHeight="1100" math="0" shadow="0">
            <root>
                <mxCell id="0"/>
                <mxCell id="1" parent="0"/>
                <mxCell id="2" value="" style="rounded=0;whiteSpace=wrap;html=1;strokeWidth=5;fillColor=#d5e8d4;strokeColor=#82b366;" parent="1" vertex="1">
                    <mxGeometry x="80" y="440" width="480" height="40" as="geometry"/>
                </mxCell>
                <mxCell id="3" value="1" style="text;html=1;align=center;verticalAlign=middle;resizable=0;points=[];autosize=1;strokeColor=none;fillColor=none;fontSize=20;strokeWidth=5;" parent="1" vertex="1">
                    <mxGeometry x="40" y="440" width="30" height="40" as="geometry"/>
                </mxCell>
                <mxCell id="4" value="seq_len" style="text;html=1;align=center;verticalAlign=middle;resizable=0;points=[];autosize=1;strokeColor=none;fillColor=none;fontSize=20;strokeWidth=5;" parent="1" vertex="1">
                    <mxGeometry x="240" y="400" width="90" height="40" as="geometry"/>
                </mxCell>
                <mxCell id="5" value="" style="rounded=0;whiteSpace=wrap;html=1;rotation=90;strokeWidth=5;" parent="1" vertex="1">
                    <mxGeometry x="765" y="280" width="480" height="320" as="geometry"/>
                </mxCell>
                <mxCell id="6" value="seq_len" style="text;html=1;align=center;verticalAlign=middle;resizable=0;points=[];autosize=1;strokeColor=none;fillColor=none;fontSize=20;strokeWidth=5;" parent="1" vertex="1">
                    <mxGeometry x="730" y="430" width="90" height="40" as="geometry"/>
                </mxCell>
                <mxCell id="7" value="pred_len" style="text;html=1;align=center;verticalAlign=middle;resizable=0;points=[];autosize=1;strokeColor=none;fillColor=none;fontSize=20;strokeWidth=5;" parent="1" vertex="1">
                    <mxGeometry x="955" y="150" width="100" height="40" as="geometry"/>
                </mxCell>
                <mxCell id="8" value="" style="rounded=0;whiteSpace=wrap;html=1;rotation=90;strokeWidth=5;" parent="1" vertex="1">
                    <mxGeometry x="1460" y="300" width="40" height="320" as="geometry"/>
                </mxCell>
                <mxCell id="9" value="1" style="text;html=1;align=center;verticalAlign=middle;resizable=0;points=[];autosize=1;strokeColor=none;fillColor=none;fontSize=20;strokeWidth=5;" parent="1" vertex="1">
                    <mxGeometry x="1280" y="440" width="30" height="40" as="geometry"/>
                </mxCell>
                <mxCell id="10" value="pred_len" style="text;html=1;align=center;verticalAlign=middle;resizable=0;points=[];autosize=1;strokeColor=none;fillColor=none;fontSize=20;strokeWidth=5;" parent="1" vertex="1">
                    <mxGeometry x="1475" y="400" width="100" height="40" as="geometry"/>
                </mxCell>
                <mxCell id="11" value="" style="shape=umlDestroy;strokeWidth=5;" parent="1" vertex="1">
                    <mxGeometry x="640" y="440" width="40" height="70" as="geometry"/>
                </mxCell>
                <mxCell id="12" value="" style="endArrow=none;html=1;strokeWidth=5;" parent="1" edge="1">
                    <mxGeometry width="50" height="50" relative="1" as="geometry">
                        <mxPoint x="1210" y="450" as="sourcePoint"/>
                        <mxPoint x="1270" y="450" as="targetPoint"/>
                    </mxGeometry>
                </mxCell>
                <mxCell id="13" value="" style="endArrow=none;html=1;strokeWidth=5;" parent="1" edge="1">
                    <mxGeometry width="50" height="50" relative="1" as="geometry">
                        <mxPoint x="1210" y="474.89" as="sourcePoint"/>
                        <mxPoint x="1270" y="474.89" as="targetPoint"/>
                    </mxGeometry>
                </mxCell>
                <mxCell id="14" value="" style="rounded=0;whiteSpace=wrap;html=1;strokeWidth=5;fillColor=#d5e8d4;strokeColor=#82b366;rotation=90;" vertex="1" parent="1">
                    <mxGeometry x="690" y="420" width="480" height="40" as="geometry"/>
                </mxCell>
                <mxCell id="15" value="" style="rounded=0;whiteSpace=wrap;html=1;strokeWidth=5;fillColor=#d5e8d4;strokeColor=#82b366;rotation=90;" vertex="1" parent="1">
                    <mxGeometry x="1370" y="440" width="40" height="40" as="geometry"/>
                </mxCell>
            </root>
        </mxGraphModel>
    </diagram>
</mxfile>